<?xml version="1.0" encoding="UTF-8"?>
<svg width="43px" height="43px" viewBox="0 0 43 43" version="1.1" xmlns="http://www.w3.org/2000/svg" xmlns:xlink="http://www.w3.org/1999/xlink">
    <g id="Page-1" stroke="none" stroke-width="1" fill="none" fill-rule="evenodd">
        <g id="iPad-Pro-Landscape" transform="translate(-654.000000, -521.000000)">
            <g id="insta" transform="translate(654.000000, 521.000000)">
                <rect id="Rectangle-Copy" fill="#FFFFFF" x="0" y="0" width="43" height="43" rx="7"></rect>
                <g id="Glyph" transform="translate(12.000000, 12.000000)" fill-rule="nonzero" fill="#282829">
                    <path d="M9.35433333,4.54733333 C6.69950054,4.54733333 4.54733333,6.69950054 4.54733333,9.35433333 C4.54733333,12.0091661 6.69950054,14.1613333 9.35433333,14.1613333 C12.0091661,14.1613333 14.1613333,12.0091661 14.1613333,9.35433333 C14.1613333,8.07943767 13.654883,6.85675841 12.7533956,5.95527104 C11.8519083,5.05378366 10.629229,4.54733333 9.35433333,4.54733333 L9.35433333,4.54733333 Z M9.35433333,12.4766667 C7.62991625,12.4766667 6.232,11.0787504 6.232,9.35433333 C6.232,7.62991625 7.62991625,6.232 9.35433333,6.232 C11.0787504,6.232 12.4766667,7.62991625 12.4766667,9.35433333 C12.4766667,11.0787504 11.0787504,12.4766667 9.35433333,12.4766667 L9.35433333,12.4766667 Z" id="Shape"></path>
                    <ellipse id="Oval" cx="14.3513333" cy="4.37" rx="1.121" ry="1.121"></ellipse>
                    <path d="M18.2273333,3.23 C17.7408611,1.97369965 16.7476337,0.980472215 15.4913333,0.494 C14.763616,0.220784449 13.994817,0.0730208566 13.2176667,0.057 C12.217,0.0126666667 11.9003333,0 9.36066667,0 C6.821,0 6.498,0 5.50366667,0.057 C4.72651634,0.0730208566 3.95771736,0.220784449 3.23,0.494 C1.97369965,0.980472215 0.980472215,1.97369965 0.494,3.23 C0.220784449,3.95771736 0.0730208566,4.72651634 0.057,5.50366667 C0.0126666667,6.50433333 0,6.821 0,9.36066667 C0,11.9003333 0,12.2233333 0.057,13.2176667 C0.0730208566,13.994817 0.220784449,14.763616 0.494,15.4913333 C0.980472215,16.7476337 1.97369965,17.7408611 3.23,18.2273333 C3.95582485,18.5113709 4.72468306,18.6698542 5.50366667,18.696 C6.50433333,18.7403333 6.821,18.753 9.36066667,18.753 C11.9003333,18.753 12.2233333,18.753 13.2176667,18.696 C13.994817,18.6799791 14.763616,18.5322156 15.4913333,18.259 C16.7476337,17.7725278 17.7408611,16.7793004 18.2273333,15.523 C18.5005489,14.7952826 18.6483125,14.0264837 18.6643333,13.2493333 C18.7086667,12.2486667 18.7213333,11.932 18.7213333,9.39233333 C18.7213333,6.85266667 18.7213333,6.52966667 18.6643333,5.53533333 C18.65191,4.7475183 18.5040888,3.96770813 18.2273333,3.23 L18.2273333,3.23 Z M16.9606667,13.1416667 C16.9552432,13.7407213 16.8459568,14.3342962 16.6376667,14.896 C16.3224193,15.7139481 15.6759481,16.3604193 14.858,16.6756667 C14.3022914,16.8818089 13.7153291,16.991061 13.1226667,16.9986667 C12.1346667,17.043 11.856,17.0556667 9.32266667,17.0556667 C6.78933333,17.0556667 6.52966667,17.0556667 5.52266667,16.9986667 C4.9300042,16.991061 4.34304192,16.8818089 3.78733333,16.6756667 C2.96653974,16.3625949 2.31731892,15.7156763 2.00133333,14.896 C1.79519112,14.3402914 1.68593901,13.7533291 1.67833333,13.1606667 C1.634,12.1726667 1.62133333,11.894 1.62133333,9.36066667 C1.62133333,6.82733333 1.62133333,6.56766667 1.67833333,5.56066667 C1.68375682,4.961612 1.79304317,4.3680371 2.00133333,3.80633333 C2.31731892,2.98665707 2.96653974,2.33973846 3.78733333,2.02666667 C4.34304192,1.82052445 4.9300042,1.71127235 5.52266667,1.70366667 C6.51066667,1.65933333 6.78933333,1.64666667 9.32266667,1.64666667 C11.856,1.64666667 12.1156667,1.64666667 13.1226667,1.70366667 C13.7153291,1.71127235 14.3022914,1.82052445 14.858,2.02666667 C15.6759481,2.34191398 16.3224193,2.98838524 16.6376667,3.80633333 C16.8438089,4.36204192 16.953061,4.9490042 16.9606667,5.54166667 C17.005,6.52966667 17.0176667,6.80833333 17.0176667,9.34166667 C17.0176667,11.875 17.0176667,12.1473333 16.9733333,13.1416667 L16.9606667,13.1416667 Z" id="Shape"></path>
                </g>
            </g>
        </g>
    </g>
</svg>