<?xml version="1.0" encoding="UTF-8"?>
<svg width="418px" height="234px" viewBox="0 0 418 234" version="1.1" xmlns="http://www.w3.org/2000/svg" xmlns:xlink="http://www.w3.org/1999/xlink">
    <!-- Generator: Sketch 42 (36781) - http://www.bohemiancoding.com/sketch -->
    <title>V-efire-mi_logo</title>
    <desc>Created with Sketch.</desc>
    <defs></defs>
    <g id="Page-1" stroke="none" stroke-width="1" fill="none" fill-rule="evenodd">
        <g id="iPad-Pro-Landscape" transform="translate(-431.000000, -225.000000)" fill="#FFFFFF">
            <g id="V-efire-mi_logo" transform="translate(431.000000, 225.000000)">
                <path d="M41.0070583,4.89534256 C46.9563231,5.65825416 45.3540621,2 42.0352919,2 C38.7193082,2 37.749592,4.47667156 41.0070583,4.89534256" id="Fill-1"></path>
                <path d="M185.823869,137.326853 C185.325869,136.506853 184.249869,137.510853 185.823869,137.326853" id="Fill-3"></path>
                <path d="M376.441751,88.2152739 C378.342785,89.4607989 376.072532,88.7571865 376.441751,88.2152739 M373.89898,62.9507826 C373.881398,62.9289313 373.868211,62.9114503 373.85063,62.8895989 C373.490202,63.7308746 372.947363,63.8423163 372.224311,63.2217389 C372.738579,62.4700537 373.446248,62.9660785 373.839641,62.8764882 C372.0419,60.6476539 372.769347,60.3766976 376.030776,62.0679895 C374.195673,61.9346964 373.485807,62.2296892 373.89898,62.9507826 M375.178057,80.5410918 C374.687964,79.6692243 374.892353,79.2606047 375.791223,79.315233 C376.147255,80.2504693 375.942866,80.6590889 375.178057,80.5410918 M373.123182,80.0057346 C371.82872,80.2329882 372.720997,79.0814239 373.123182,80.0057346 M372.84407,71.1887287 C372.866047,71.8027506 372.888025,72.4167726 372.910002,73.0307946 C371.613343,72.3359227 372.200136,71.7721588 372.84407,71.1887287 M371.002374,67.1221988 C368.424439,66.8730938 367.813471,66.0055966 369.171667,64.5153368 C370.013397,65.8176753 370.602388,65.7892685 370.943036,64.4323018 C371.371593,65.3129099 371.391372,66.2088138 371.002374,67.1221988 M369.868347,94.4035665 C371.837511,93.1733374 370.321079,95.1486964 369.868347,94.4035665 M369.031012,81.3954782 C368.776076,79.7937768 370.389208,80.7071618 369.031012,81.3954782 M366.406925,78.069708 C367.215689,77.4513158 368.127746,77.206581 369.143096,77.3355038 C367.442055,79.6539284 368.158514,77.8337138 366.406925,78.069708 M366.543184,85.6390038 C367.571721,84.9943899 368.079396,85.0577588 368.061814,85.8291102 C367.026685,86.4890199 366.521207,86.4256511 366.543184,85.6390038 M364.969611,90.4681445 C362.683974,90.5577349 364.943239,89.7514214 364.969611,90.4681445 M358.677516,73.6273355 C360.213728,68.1972835 358.666528,73.4547101 361.248858,71.9032667 C360.635692,70.0131279 359.136842,72.0059679 359.690669,70.04809 C360.963153,69.5214733 362.519145,67.4390429 363.338897,68.1645066 C364.938843,69.5804718 360.466467,73.3978967 358.677516,73.6273355 M362.283988,72.9499447 C362.848804,72.141446 363.253186,72.0737069 363.497134,72.7489126 C362.934515,73.5574113 362.530133,73.6251504 362.283988,72.9499447 M362.578483,76.4330444 C362.607054,77.1366568 362.635624,77.8424543 362.675183,78.7755055 C361.72137,77.8446394 361.72137,77.8446394 362.578483,76.4330444 M361.804883,88.3529372 C362.730127,87.9312068 362.299372,89.5700555 361.804883,88.3529372 M360.626901,97.517379 C360.171971,96.1953744 361.813674,96.6083643 360.626901,97.517379 M360.033515,76.939995 C360.281858,77.8905272 358.796194,77.7004208 360.033515,76.939995 M358.769821,89.3821342 C359.081898,89.0434388 360.092853,88.1737564 360.255485,89.1352143 C359.587376,89.8890847 359.090689,89.9721197 358.769821,89.3821342 M366.556371,45.7559823 C366.297039,45.9526441 360.517015,59.9899293 358.640155,58.4974845 C356.587477,56.8673763 364.998182,43.1491203 366.556371,45.7559823 M362.352117,65.780528 C360.912606,64.434487 360.868651,62.874303 362.222451,61.1021613 C364.248757,62.6361237 365.765189,61.2026774 366.411321,63.9078703 C362.914736,64.6639258 362.609252,62.1990974 362.352117,65.780528 M366.437694,78.0325608 C365.824527,78.5482518 365.211361,79.0639429 364.598195,79.5796339 C363.237802,76.7608142 366.090453,78.1002998 366.437694,78.0325608 M367.275028,72.257258 C367.332169,72.3206268 367.400298,72.4167726 367.475021,72.5719169 C366.903612,72.6265452 366.3344,72.6811735 365.762991,72.7336167 C365.930018,71.9513396 366.708014,71.5339794 367.275028,72.257258 M367.334366,46.083752 C369.235401,47.329277 366.967346,46.6256646 367.334366,46.083752 M369.241994,69.3925505 C369.345287,70.4873014 369.079362,70.9046616 368.442021,70.646816 C368.180492,69.3466627 368.446417,68.9271175 369.241994,69.3925505 M376.894483,80.9387857 C377.766981,80.495204 378.327401,80.7967522 378.577942,81.8456154 C379.665817,81.7844317 375.463762,82.1296825 376.894483,80.9387857 M378.217515,71.8901559 C377.771376,72.4036618 377.340621,72.3031458 376.927449,71.592978 C377.61314,70.9745858 378.043894,71.0751018 378.217515,71.8901559 M389.017149,51.9704965 C394.045551,54.4069182 396.052076,52.6260359 392.537909,60.74817 C389.406147,67.9787704 381.753659,68.1011377 381.753659,68.1011377 C379.839438,68.1295445 378.215317,68.1535809 378.147187,68.1535809 C378.07686,68.1535809 377.777969,66.6065077 377.38018,64.7447756 C377.38018,64.7447756 372.980329,44.1979835 389.017149,51.9704965 M398.056404,57.7851316 C398.368481,56.0304709 398.511334,55.1083454 399.561848,56.6991212 L399.289329,58.0102001 C398.47617,59.3518709 397.832236,59.7604905 397.614661,60.0773346 C397.706965,59.6730853 397.8674,58.8492907 398.056404,57.7851316 M354.526009,68.2103943 C353.937017,67.6444452 355.323784,67.6947033 354.526009,68.2103943 M351.519517,55.3858571 C351.064587,54.0660376 352.708488,54.4790275 351.519517,55.3858571 M348.84708,73.1160147 C347.596573,73.3083063 347.194388,73.0570162 347.640527,72.3621443 C348.737193,72.2681837 349.139378,72.5194738 348.84708,73.1160147 M345.842786,81.6555089 C345.783447,81.6861007 345.666968,81.7079521 345.460381,81.7079521 C345.25819,81.2184826 345.055999,80.7290131 344.856006,80.2373585 C345.350495,79.8855523 346.601002,80.2439139 347.337241,80.1237317 C347.130654,80.9824884 346.63177,81.491624 345.842786,81.6555089 M344.412065,71.2193205 C345.352692,71.5995334 345.54829,71.9972273 344.996661,72.4080321 C343.924169,72.0824475 343.730769,71.6869387 344.412065,71.2193205 M343.414297,74.7330121 C343.671431,76.7673696 342.174778,75.4715865 343.414297,74.7330121 M342.227523,57.4420659 C343.996694,58.8339947 342.064892,58.0145704 342.227523,57.4420659 M341.649521,72.7379869 C341.803362,72.0256341 342.41433,72.7139505 341.649521,72.7379869 M328.654356,79.116386 C321.582068,78.9372052 326.32916,66.9823504 326.324765,60.7612808 C326.324765,58.539002 324.661085,51.7825751 325.610503,50.4452746 L325.966535,49.9448795 C327.340115,49.4291884 330.023541,49.1341957 331.931169,49.28934 C331.931169,49.28934 344.31976,50.2988708 341.150637,63.2588862 C339.847384,68.5949775 335.482697,79.2890114 328.654356,79.116386 M337.757345,79.84622 C336.287065,80.0559926 335.75082,79.7457039 336.148608,78.9131688 C337.566143,78.6990259 338.102388,79.0093146 337.757345,79.84622 M315.446012,114.703439 C315.500955,113.101737 314.646039,105.685401 317.017387,105.027676 C318.10746,104.723943 316.58883,120.094158 315.446012,114.703439 M333.408042,164.557216 C334.131094,164.804136 334.335483,165.179978 334.008021,165.691299 C333.737701,165.71315 333.520126,165.706595 333.331121,165.680373 C333.161896,167.684139 332.834435,168.94496 332.353132,168.94059 C332.23885,168.202015 332.194896,167.874245 332.188303,167.7781 C330.845491,158.222519 331.104823,147.86281 327.250008,138.999917 C331.863039,136.39961 333.867367,155.633138 333.408042,164.557216 M336.517827,151.909674 C337.623284,152.541177 337.834266,153.019721 337.155168,153.340935 C336.438708,152.960722 336.225529,152.484364 336.517827,151.909674 M338.882582,168.250088 C338.62325,169.167843 338.4782,169.674794 338.302382,170.304112 C337.232088,169.1154 337.232088,169.1154 338.882582,168.250088 M344.17471,152.875502 C342.996728,154.396354 343.750549,152.597991 344.17471,152.875502 M312.966975,42.1964029 C312.29447,42.0784058 312.160409,41.6588606 312.562593,40.9421374 C313.448277,41.2109086 313.582339,41.6282687 312.966975,42.1964029 M309.261606,38.2500553 C309.200069,36.7860171 309.984658,36.9979749 310.819795,37.249265 C310.301131,37.5835902 309.782467,37.9157302 309.261606,38.2500553 M307.644078,130.333685 C306.943003,130.626493 306.1716,130.329315 305.92985,129.673775 C305.6881,129.018236 307.070471,127.538902 307.688033,127.753045 C308.305594,127.969373 308.345153,130.040877 307.644078,130.333685 M303.938709,44.0340986 C304.439791,43.1687865 304.899116,43.1338244 305.312289,43.9292123 C304.685936,44.7114894 304.228809,44.7464515 303.938709,44.0340986 M304.554073,47.6046036 C305.165041,48.5026927 302.712377,45.0938874 304.474954,45.7035391 C305.305696,46.2214153 305.332068,46.8551034 304.554073,47.6046036 M301.578349,35.2804615 C302.527768,35.6519339 303.206865,36.3052882 303.615643,37.2383394 C300.741015,36.9739385 302.679411,36.6527241 301.578349,35.2804615 M303.34752,42.0062965 C302.488208,41.018617 303.940907,41.1868721 303.34752,42.0062965 M300.050928,39.2224389 C301.303633,38.1845014 301.340995,40.0309375 300.050928,39.2224389 M298.785037,48.8785353 C298.782839,48.8632394 298.780642,48.8544988 298.778444,48.8370178 C298.415819,49.1494916 298.136707,49.0773823 297.94111,48.6228749 C298.35648,48.3890658 298.571857,48.7845746 298.776246,48.8304624 C298.45318,47.3860904 298.853167,47.4232377 299.982799,48.9528298 C299.158651,48.4721008 298.758664,48.4480644 298.785037,48.8785353 M298.736687,54.0310755 C298.411423,54.1687388 298.233407,54.0245201 298.204837,53.5984195 C298.66636,53.4651265 298.844376,53.6093451 298.736687,54.0310755 M297.958691,49.0446053 C297.855398,51.3062165 297.301571,49.007458 297.958691,49.0446053 M301.626699,35.2870169 C300.866285,35.0269862 300.108069,34.7691407 299.347655,34.50911 C301.086058,31.9022481 301.389345,35.0248011 301.626699,35.2870169 M292.264379,56.3669812 C292.512722,55.5628528 293.055561,56.3560555 292.264379,56.3669812 M290.616083,54.5096194 C290.631467,52.8860666 291.651212,54.1621834 291.829228,54.2102563 C291.424846,54.3107724 291.020465,54.4091033 290.616083,54.5096194 M290.789703,58.2134174 C290.15456,58.2855267 289.932589,58.1391229 290.125989,57.7785762 C290.754539,57.7130222 290.974312,57.8572409 290.789703,58.2134174 M289.653478,62.6230129 C290.855635,62.4984604 289.693037,63.07315 289.653478,62.6230129 M290.400705,52.5823333 C290.25126,52.9188436 290.101814,53.2531687 289.904019,53.6967504 C289.675455,53.0455812 289.675455,53.0455812 290.400705,52.5823333 M291.677585,51.0745925 C291.229249,51.3236975 291.02486,51.2625138 291.066617,50.8932266 C291.514953,50.6441216 291.719342,50.7053053 291.677585,51.0745925 M288.279898,59.6709001 C287.192023,59.1923563 288.431541,59.3300196 288.279898,59.6709001 M287.29092,57.9643124 C287.820573,57.9774232 287.240373,58.6438883 287.29092,57.9643124 M286.387654,57.975238 C285.901956,58.174085 285.653613,58.0997905 285.638229,57.7523546 C285.862397,57.6649493 286.534902,57.4901388 286.387654,57.975238 M284.627274,61.9674734 C284.721777,61.2485651 285.392084,61.8145142 284.627274,61.9674734 M283.073481,68.6299396 C282.928431,68.2322456 283.563574,68.570941 283.073481,68.6299396 M279.823041,60.8071685 C280.326321,61.860402 279.614257,61.0366074 279.823041,60.8071685 M279.295586,69.6241745 C278.667036,69.4275126 278.53737,69.2199251 278.904391,68.9970417 C279.438439,69.2024441 279.568105,69.4122167 279.295586,69.6241745 M277.662675,68.4157967 C277.238513,68.0202879 277.238513,67.7908491 277.664872,67.7274802 C278.014311,68.1186188 278.014311,68.3480576 277.662675,68.4157967 M275.948447,72.9127975 C275.92647,72.9280934 275.862736,72.9171677 275.73307,72.8559841 C275.752849,72.5828426 275.772629,72.307516 275.790211,72.0321894 C276.102288,71.9819314 276.60337,72.4342537 276.974786,72.5456954 C276.686884,72.8909462 276.34184,73.004573 275.948447,72.9127975 M276.39019,69.1390752 C276.038554,70.1464209 275.640765,69.2002589 276.39019,69.1390752 M276.025367,67.806145 C276.262722,67.5089671 276.387993,67.9700299 276.025367,67.806145 M260.814893,82.6410032 C260.568747,82.3001227 260.579736,82.0291664 260.847859,81.8281343 C261.217077,82.3744172 261.206089,82.6453735 260.814893,82.6410032 M257.436985,90.8090251 C257.212817,90.011452 257.212817,90.011452 258.182015,89.9830453 C257.850158,90.3523326 257.665549,90.5555498 257.436985,90.8090251 M256.050219,57.5294712 C257.863344,56.0850992 256.582069,58.2177876 256.050219,57.5294712 M256.500753,87.6799167 C255.878796,87.4351819 255.815062,87.1620405 256.307353,86.8583072 C256.753492,87.2122985 256.819424,87.4876251 256.500753,87.6799167 M251.74487,49.1975645 C252.692091,48.441509 253.201964,48.4480644 253.274489,49.2150455 C252.320675,49.986397 251.810802,49.9820267 251.74487,49.1975645 M251.674543,74.0687321 C251.024015,73.5748923 252.406386,73.4656358 251.674543,74.0687321 M250.733915,54.1731091 C248.472453,54.5183599 250.624029,53.4629413 250.733915,54.1731091 M247.347217,52.4293741 C248.217517,51.9049425 247.977965,53.5831236 247.347217,52.4293741 M247.221946,61.6659253 C246.619769,60.4051043 248.298833,60.6301729 247.221946,61.6659253 M246.593396,79.5840042 C245.373657,79.9161442 244.942902,79.7129269 245.307725,78.9721673 C246.38681,78.7536542 246.815367,78.9590565 246.593396,79.5840042 M244.617639,88.3726034 C244.595661,88.4184911 244.483577,88.4687492 244.208861,88.5037113 C243.951727,88.0382782 243.696791,87.5750303 243.439657,87.1095973 C243.890191,86.7031628 245.175862,86.9194909 245.892321,86.7162736 C245.78683,87.5728452 245.349482,88.1103876 244.617639,88.3726034 M242.685836,79.315233 C241.584774,79.1142009 241.345222,78.7405434 241.969377,78.1986308 C242.947366,78.4717722 243.186918,78.8432446 242.685836,79.315233 M241.380386,81.8019127 C241.868281,83.7969378 240.230974,82.6781505 241.380386,81.8019127 M239.398035,80.0210305 C239.47056,79.2955668 240.156251,79.9095888 239.398035,80.0210305 M238.224448,64.7578864 C240.143065,65.9422277 238.127748,65.3456868 238.224448,64.7578864 M245.896716,53.3820915 C245.318714,54.2058861 244.835214,54.3435494 244.448414,53.7950813 C244.718734,53.4214238 245.624198,52.44467 245.896716,53.3820915 M222.728269,91.755187 C222.671128,91.7092993 222.629372,91.6677818 222.596406,91.6284494 C221.908517,90.9729099 221.930494,90.3108151 222.686512,89.6399797 C222.904088,89.4520584 225.033686,90.2780381 222.728269,91.755187 M220.301978,74.4139829 C218.592145,76.9596611 203.201457,86.1634353 199.975193,84.3891085 C199.476309,84.1159671 196.019283,61.24638 196.419269,60.5427676 C197.061006,59.4130546 211.258328,59.0262863 212.671467,59.9090795 C214.458219,61.0256817 216.08234,72.3643294 219.203114,71.9731909 C222.926065,71.509943 218.238311,62.4110551 218.238311,62.4110551 C217.363616,60.715393 216.831765,59.303798 217.055934,59.2732062 L217.192193,59.2666508 C223.761201,58.7902921 222.51509,71.1144342 220.301978,74.4139829 M218.271277,89.1330292 L220.418457,89.1330292 C219.556948,90.4768851 219.556948,90.4768851 218.271277,89.1330292 M216.181238,95.8217169 C216.115306,94.7291511 216.427384,94.2833843 217.115272,94.4909718 C217.561411,95.6884239 217.249334,96.1320056 216.181238,95.8217169 M203.093769,95.8217169 C203.405846,94.593673 203.810228,94.261533 204.306914,94.8252969 C204.133294,95.6141294 203.728912,95.9462694 203.093769,95.8217169 M201.955346,88.2327549 C203.744296,88.947293 201.799307,88.7134839 201.955346,88.2327549 M197.157706,141.70511 C197.162101,141.722591 197.144519,141.761923 197.07639,141.831847 C196.900572,141.764108 196.726951,141.696369 196.551133,141.626445 C196.579703,141.414487 196.97969,141.185048 197.129135,140.966535 C197.293965,141.224381 197.29836,141.469115 197.157706,141.70511 M195.819289,136.226985 C195.531387,136.237911 195.883024,135.89703 195.819289,136.226985 M195.203926,138.993361 C195.450071,138.691813 195.612703,138.650296 195.694019,138.870994 C195.439083,139.235911 195.274253,139.275243 195.203926,138.993361 M209.588054,57.9883488 C208.662811,58.2374538 208.148543,58.3751171 207.515597,58.5455574 C207.994702,57.0225207 207.994702,57.0225207 209.588054,57.9883488 M209.85398,50.9893724 C210.201221,52.0273099 210.018809,52.5364455 209.300152,52.5167794 C208.555122,51.4766567 208.739732,50.9675211 209.85398,50.9893724 M214.436242,53.1286162 C214.480197,53.1876147 214.508767,53.2378728 214.530744,53.2859457 C215.023035,54.0966295 214.827438,54.7303176 213.924172,55.1804547 C213.662642,55.3050072 211.823144,53.9567811 214.436242,53.1286162 M200.410343,153.474228 C200.137825,153.563819 199.962006,153.50045 199.887284,153.286307 C200.320236,153.159569 200.493857,153.220753 200.410343,153.474228 M202.008091,151.573164 C202.109187,152.246184 201.832273,151.614681 202.008091,151.573164 M202.819053,157.293838 C202.533348,157.643459 202.339948,157.630349 202.243248,157.250136 C202.566314,157.033808 202.757516,157.046918 202.819053,157.293838 M204.66954,156.677631 C204.840962,156.968254 204.937662,157.129953 205.054142,157.3288 C204.487128,157.309134 204.487128,157.309134 204.66954,156.677631 M229.936817,149.691766 C230.123624,148.898563 230.791733,150.106941 229.936817,149.691766 M233.699327,134.395845 C233.545486,135.337636 233.461972,135.859883 233.356481,136.502311 C232.15872,135.442523 232.15872,135.442523 233.699327,134.395845 M232.934517,133.670381 C232.640022,135.89703 232.356515,133.825525 232.934517,133.670381 M228.565434,132.40519 C227.303939,132.65211 226.912743,132.276267 227.391848,131.275477 C228.488514,131.386918 228.87971,131.762761 228.565434,132.40519 M239.472758,140.55136 C240.380419,139.487201 240.866117,141.102013 239.472758,140.55136 M245.547278,134.797909 C246.00001,134.891869 247.268098,135.30923 246.520871,135.940733 C245.527498,135.754996 245.202234,135.374784 245.547278,134.797909 M246.896682,146.848909 C248.96914,147.897773 246.485707,147.613705 246.896682,146.848909 M247.786762,140.649691 C246.538453,138.744256 248.391137,140.256367 247.786762,140.649691 M247.991151,136.862858 C248.830683,137.437548 247.193376,137.909536 247.991151,136.862858 M251.980027,141.71385 C252.793186,141.973881 253.577775,151.037807 253.314048,151.638718 C252.551436,151.726123 252.709673,151.686791 252.95362,151.654014 C248.749367,151.599385 250.595458,141.272454 251.980027,141.71385 M252.764616,139.517793 C253.845898,140.066261 254.050287,140.531694 253.377782,140.911907 C252.27672,140.365624 252.072332,139.900191 252.764616,139.517793 M255.610673,149.289701 C255.50738,151.551313 254.953553,149.252554 255.610673,149.289701 M268.179479,133.497756 C267.285004,134.14674 266.788317,134.131444 266.682826,133.456238 C267.674002,132.566889 268.170688,132.58 268.179479,133.497756 M270.056339,136.386499 C269.992604,136.419276 269.937661,136.441128 269.887114,136.454239 C269.003627,136.80823 268.405845,136.513237 268.102559,135.556149 C268.021243,135.280823 269.651957,133.690047 270.056339,136.386499 M270.618957,142.439314 C269.946452,142.321317 269.812391,141.901772 270.214575,141.185048 C271.100259,141.45382 271.236518,141.873365 270.618957,142.439314 M266.915785,138.492966 C266.852051,137.028928 267.638838,137.243071 268.471777,137.492176 C267.953113,137.826501 267.434449,138.158641 266.915785,138.492966 M276.552822,160.532203 C283.765765,154.184396 303.321147,159.336936 309.415447,164.854394 C310.613208,169.194065 312.509847,179.086156 306.81993,174.10187 C303.747507,171.411973 308.16494,160.833752 300.672885,160.602128 C300.174001,164.87406 305.296905,171.095129 305.077132,175.100476 C304.751868,181.015627 303.209063,180.333866 296.37413,182.283003 C292.54349,183.373384 288.633732,183.952444 284.781115,185.108378 C284.519586,175.648944 281.047176,174.779261 277.091265,167.86769 C274.913317,164.067746 272.854046,163.785864 276.552822,160.532203 M194.781962,140.647506 C195.368755,141.080162 194.669878,141.143531 194.781962,140.647506 M194.080887,143.516584 C194.373185,143.105779 194.584166,143.044595 194.713832,143.335218 C194.408348,143.761319 194.197366,143.822502 194.080887,143.516584 M193.836939,140.608174 C193.691889,140.394031 194.017153,140.407142 193.836939,140.608174 M193.258937,127.558568 C194.043525,127.379387 193.307287,127.785822 193.258937,127.558568 M193.243552,130.74449 C193.408382,129.942546 193.546839,130.812229 193.243552,130.74449 M194.57098,139.677308 C194.225937,139.869599 194.074294,139.821526 194.122644,139.533089 C194.450105,139.38887 194.599551,139.436943 194.57098,139.677308 M191.496359,125.666244 C191.595257,125.334104 191.810634,125.266365 192.142491,125.458656 C192.393032,125.168034 191.454602,126.319598 191.496359,125.666244 M191.786459,133.856117 C191.333727,133.64853 191.8436,133.331686 191.786459,133.856117 M190.975497,126.004939 C190.630454,125.915349 190.575511,125.764575 190.80847,125.548247 C191.138129,125.68591 191.193072,125.838869 190.975497,126.004939 M191.034836,131.028557 C190.49859,131.631653 190.841436,130.860302 191.034836,131.028557 M190.175524,129.446522 C190.261236,129.026976 190.40189,128.915535 190.59529,129.107826 C190.511777,129.531742 190.37332,129.645369 190.175524,129.446522 M190.043661,136.72301 C190.832645,136.611568 190.151349,136.904376 190.043661,136.72301 M189.716199,131.314809 C189.832679,130.978299 190.149152,131.487434 189.716199,131.314809 M189.692024,127.777081 C189.217315,127.451496 189.848063,127.263575 189.692024,127.777081 M189.239292,132.339636 C189.228304,132.177936 189.250281,131.708133 189.538183,131.900424 C189.568951,132.256601 189.467856,132.400819 189.239292,132.339636 M189.492031,123.116195 C189.516206,123.35656 189.384342,123.44178 189.100835,123.371856 C189.109626,123.046271 189.239292,122.961051 189.492031,123.116195 M188.195372,127.630677 C188.232733,127.274501 188.393167,126.981693 188.674476,126.756625 C188.85469,127.75523 188.562392,127.128097 188.195372,127.630677 M188.140428,128.461027 C187.083321,128.117962 188.125044,127.720268 188.193174,127.615381 C188.175592,127.897263 188.15801,128.179145 188.140428,128.461027 M186.837176,128.205367 C187.02618,128.369252 187.215185,128.535322 187.463528,128.753835 C186.991017,128.766946 186.991017,128.766946 186.837176,128.205367 M186.920689,125.991829 C186.920689,125.991829 186.986621,125.998384 187.041564,126.015865 C186.916294,126.173194 186.791023,126.332709 186.665753,126.490039 C186.503121,126.256229 186.588833,125.952496 186.920689,125.991829 M186.654764,124.787821 C186.962446,125.030371 187.004203,125.200811 186.782233,125.299142 C186.384444,125.047852 186.342687,124.877411 186.654764,124.787821 M186.347082,128.976718 C186.652567,129.144973 186.239394,129.477113 186.347082,128.976718 M185.870176,127.42746 C185.799848,127.086579 185.881164,126.968582 186.114123,127.071284 C186.184451,127.412164 186.103135,127.530161 185.870176,127.42746 M185.384478,123.614405 C185.925119,123.719292 186.061378,123.561962 185.795453,123.144602 C186.12731,123.249488 186.362467,123.463631 186.500923,123.784846 C185.808639,124.381387 185.435025,124.324573 185.384478,123.614405 M122.188813,109.655785 C122.23057,109.712598 122.261338,109.765041 122.283316,109.810929 C122.775607,110.621613 122.577811,111.255301 121.674545,111.705438 C121.415213,111.832176 119.575715,110.48395 122.188813,109.655785 M177.226512,136.331871 C176.496866,136.126469 175.828757,135.925437 175.211195,135.761552 C171.03771,135.704738 163.857733,134.839426 162.989631,138.947474 C162.119331,143.094853 165.829095,146.966907 166.719175,151.387428 C166.886202,151.280356 167.141139,151.225728 167.505962,151.232283 C167.8554,152.270221 167.670791,152.781542 166.952134,152.75969 C166.930157,152.726913 166.914773,152.700692 166.894993,152.6701 C166.938948,153.378083 166.897191,154.101361 166.741152,154.842121 C166.633464,155.705248 166.468634,156.522487 166.297211,157.339726 C166.275234,157.448983 166.253257,157.558239 166.229082,157.665311 C166.47303,157.772382 166.787305,157.958118 167.240037,158.23126 C166.752141,158.362368 166.380725,158.462884 166.044473,158.552474 C164.708254,164.917762 163.334674,171.318013 162.895129,177.464788 C162.512724,177.370827 162.128122,177.292163 161.754508,177.246275 C159.706225,176.988429 155.844818,177.558749 159.191957,179.868433 C158.044743,181.092106 156.361284,180.196202 155.403074,181.225399 C155.732733,180.869223 155.077811,183.036873 155.086602,183.019392 C154.550356,184.162216 153.818513,185.364039 153.084471,186.408531 C151.930664,188.049565 150.869162,189.662192 149.781286,191.309782 C148.537373,193.19992 149.570305,192.874336 147.990138,191.980617 C147.528615,191.718401 147.144013,191.370965 146.816552,190.960161 C146.486892,190.547171 146.216572,190.072997 145.979217,189.559491 C144.062799,184.800275 143.845224,179.177931 139.93107,175.284027 C138.843195,173.986058 136.667444,175.716683 136.667444,176.581995 C136.232294,180.90637 133.403819,184.151291 129.896245,186.334237 C129.065504,186.790929 128.247949,187.21266 127.489733,187.566651 C126.949092,185.617514 127.140294,183.786374 125.443648,182.492776 C124.894216,182.07323 123.881064,182.171561 123.188779,181.690832 C122.711873,181.358692 122.397597,180.812409 122.023984,180.277052 C121.006436,178.312619 118.395535,177.879963 116.43736,178.312619 C116.002209,178.528947 116.219784,179.826915 116.457139,180.637599 C116.72746,181.452653 117.021955,182.265522 116.701087,182.997541 C116.457139,183.556935 113.962718,185.578181 113.433066,185.991171 C110.316687,188.418853 105.88387,186.128835 104.044372,182.999726 C105.952,181.878754 108.461805,181.511652 110.296908,180.346976 C110.688103,180.100057 111.105672,179.791953 111.534229,179.448887 C111.969379,179.0796 112.41332,178.677536 112.852865,178.238325 C116.002209,174.418715 120.571286,169.878011 119.04826,164.686138 C118.395535,162.739186 114.914334,164.037154 113.391309,165.335123 C113.608884,165.335123 114.044034,165.118795 114.261609,165.118795 C112.303433,166.633091 110.129881,165.767779 108.206869,166.071512 C107.7893,166.086808 107.387116,166.134881 106.960757,166.259433 C106.543189,166.362134 106.103643,166.541315 105.617945,166.823197 C102.688374,168.521044 98.9324572,172.159288 98.4841207,175.666425 C98.0687501,175.384543 97.609425,175.249065 97.1061453,175.262175 C97.4006409,175.852161 98.0335865,179.837841 96.9083498,178.729979 C96.2819974,181.909346 91.5393007,182.390074 89.816282,180.303274 C88.1262293,178.255806 89.0207046,176.33726 88.4712726,173.898653 C88.3811658,174.300717 88.581159,175.84342 88.0668907,176.199597 C87.4647132,175.111401 88.0954611,173.75662 86.9548404,173.328334 C88.5877522,171.617376 85.0340262,167.175003 83.4164985,165.778704 C82.6077347,165.079462 81.5264526,164.565956 80.8605411,163.729051 C80.5396728,163.326987 80.7946092,162.343677 80.4561591,161.987501 C80.3286909,161.854208 80.1440818,161.720915 79.9199135,161.585437 C89.106416,159.159941 96.422652,155.290073 106.925593,148.138137 C111.222151,145.212246 114.923125,142.325687 117.830719,139.058915 C118.773544,136.104617 120.068006,133.224614 121.549274,130.50631 C122.3954,128.952682 123.322841,127.420905 124.3294,125.939385 C124.742573,123.644997 124.9096,121.145207 124.799714,118.385386 C124.59093,113.084256 123.296468,108.727104 121.138299,104.791682 C131.181916,101.020145 142.612298,91.322531 150.255996,87.7345449 C157.939252,84.1247076 153.838292,84.1247076 161.649017,87.9049852 C167.947705,90.9554289 176.288082,94.0058726 176.288082,94.0058726 C178.085823,94.6635972 179.529731,96.7591383 179.498962,98.6623879 C179.498962,98.6623879 179.360506,107.155994 180.635188,115.776338 C177.415516,115.433273 174.435398,115.446384 173.650809,116.302955 C171.006942,119.193884 183.452675,133.773082 185.522935,137.168777 C182.120852,137.5621 179.408856,136.941523 177.226512,136.331871 M183.230704,154.872713 C181.314286,154.645459 183.252682,154.367947 183.230704,154.872713 M180.380251,191.998098 C180.32311,191.95221 180.281354,191.910693 180.248388,191.87136 C179.560499,191.215821 179.584674,190.553726 180.338495,189.885076 C180.55607,189.697154 182.685668,190.520949 180.380251,191.998098 M179.23084,149.119261 C179.191281,148.310762 179.494567,147.884662 180.140699,147.840959 C180.160479,149.108335 179.857192,149.534436 179.23084,149.119261 M146.442938,194.270635 C146.787981,194.174489 147.02094,194.261894 147.139618,194.530666 C146.893472,194.832214 146.139651,194.500074 146.442938,194.270635 M124.305225,188.473481 C124.540382,188.224376 124.817296,188.161007 125.138164,188.287745 C125.100803,188.753178 124.164571,188.700734 124.305225,188.473481 M102.96309,174.83389 C102.727933,173.203781 104.358647,171.704781 105.694866,171.239348 C105.519048,171.698226 105.415754,171.897073 105.365207,171.947331 C104.774018,173.057378 103.883938,173.983873 102.96309,174.83389 M78.5968814,152.348886 C78.0056926,151.050917 78.1617313,150.452191 79.0627997,150.554893 C79.6649771,151.905304 79.5089384,152.50403 78.5968814,152.348886 M76.7354059,141.311786 C77.6232879,141.276824 78.2518381,141.617704 78.6254518,142.327872 C78.6694064,142.375945 78.7221519,142.480831 78.7792928,142.679678 C78.3595268,143.005263 77.9397607,143.330848 77.5199947,143.656432 C77.0452855,143.278404 77.0540764,141.982621 76.7354059,141.311786 M50.8395786,136.209504 C47.751771,135.652295 45.1496612,133.24428 43.0618197,129.839845 C42.0882263,129.033532 41.3453943,127.934411 40.9585942,126.743514 C40.782776,126.208157 40.7102509,125.659689 40.7168441,125.115591 C37.8663911,118.059801 36.5873135,109.092021 37.0378477,102.571588 C42.7035901,103.034836 43.8200358,106.096206 49.753901,104.319694 C54.9449342,102.766065 56.2987346,97.5414155 61.24582,95.8107912 C69.9554155,92.766903 84.7637057,94.2243857 90.8206437,101.085699 C92.5744305,103.069798 98.9302594,119.718316 92.2249918,120.140046 C93.8095536,128.646763 57.5162758,137.417882 50.8395786,136.209504 M72.5795025,146.52551 C74.4805371,145.730122 73.6322142,147.513189 72.5795025,146.52551 M71.1268044,148.756529 C70.394961,148.802417 70.896043,148.031066 71.1268044,148.756529 M69.5422426,141.764108 C70.0674996,142.909117 69.9334382,143.363625 69.1400584,143.125445 C68.7532583,142.098433 68.8873197,141.646111 69.5422426,141.764108 M68.9070993,146.523325 C69.0213811,145.520349 69.353238,145.227542 69.9004723,145.640532 C69.8762973,146.757134 69.5444403,147.049942 68.9070993,146.523325 M63.2545432,137.658246 C62.8677431,138.377154 62.5402817,137.035484 63.2545432,137.658246 M56.1602777,152.348886 C57.0283802,150.275196 56.7602574,152.348886 56.1602777,152.348886 M51.6527379,144.010424 C50.4989308,144.803626 50.4527785,143.11889 51.6527379,144.010424 M46.136441,136.008472 C44.4112246,134.459213 46.734223,135.374784 46.136441,136.008472 M43.6508108,141.761923 C44.3584792,143.925203 42.9651197,141.984807 43.6508108,141.761923 M44.2815587,147.991733 C43.8683859,147.784146 42.7519401,147.052127 43.6398222,146.636952 C44.5496815,147.071793 44.7650588,147.524115 44.2815587,147.991733 M42.46184,145.365205 C41.8025217,144.593854 43.5079585,144.561077 42.46184,145.365205 M38.3630776,131.393474 C39.0553619,129.236749 38.9872323,131.601061 38.3630776,131.393474 M38.5498845,141.565261 C37.648816,140.754577 37.5740933,140.254182 38.3235185,140.059706 C39.2421687,140.872575 39.3190892,141.375155 38.5498845,141.565261 M37.7938661,90.0682655 C38.6619686,87.9967607 38.3916481,90.0682655 37.7938661,90.0682655 M51.175831,79.4834881 C51.7010879,80.6284971 51.5670265,81.0830044 50.7736468,80.8448251 C50.3846489,79.8199984 50.5187103,79.365491 51.175831,79.4834881 M51.5340606,83.3620967 C51.5098856,84.4765138 51.1780287,84.7693214 50.5384899,84.2427047 C50.6527717,83.2397293 50.9846286,82.9469217 51.5340606,83.3620967 M52.758195,86.4759092 C52.0263516,86.5217969 52.5274336,85.7504455 52.758195,86.4759092 M54.2108931,84.247075 C56.1141254,83.4495019 55.2636048,85.2325693 54.2108931,84.247075 M59.1513853,81.3758121 C58.6766761,80.9977843 58.685467,79.7020013 58.3689942,79.0311659 C59.2546785,78.9983889 59.8854264,79.3370843 60.2568424,80.0472521 C60.300797,80.095325 60.3535425,80.2002113 60.4128811,80.3990582 C59.9909174,80.7246429 59.5711514,81.0502275 59.1513853,81.3758121 M60.696388,88.2742724 C61.2963677,89.6246838 61.140329,90.2234098 60.228272,90.0682655 C59.6370832,88.7702973 59.7931219,88.1715713 60.696388,88.2742724 M36.664234,80.8644913 C48.4374621,72.888761 62.5908294,74.1408414 76.0980648,71.4553147 C74.3706507,72.7401721 72.7003775,73.8677 71.0674657,74.8750456 C70.799343,74.8968969 70.5378133,74.9078226 70.2872724,74.9078226 C58.048126,73.4743763 47.9649506,77.755049 36.7477476,80.84264 C36.6993976,80.860121 36.6664317,80.8732318 36.664234,80.8644913 M33.7676287,140.335032 C32.2863601,141.012423 32.7346966,139.220615 33.7676287,140.335032 M31.2160666,143.726356 C31.8819782,144.174308 32.545692,144.62226 33.2116035,145.068027 C30.8512438,147.135162 31.3765008,144.0432 31.2160666,143.726356 M30.7105892,147.85407 C31.3852917,147.635557 32.0599941,147.417044 32.9544694,147.128606 C32.3105351,148.293281 32.3105351,148.293281 30.7105892,147.85407 M31.8907691,150.152828 C32.7456852,149.656804 32.965458,151.129582 31.8907691,150.152828 M29.8073231,141.327082 C32.5127261,142.327872 30.5567483,142.135581 31.2600212,143.746023 C30.4402687,143.140741 29.9567686,142.334428 29.8073231,141.327082 M31.1962871,132.931806 C30.5303755,132.217268 30.6710301,131.598876 31.6160531,131.074445 C31.2644166,130.049618 32.7368943,133.978484 31.1962871,132.931806 M29.9216049,134.428622 C30.7303688,133.834266 31.1831007,133.919486 31.2754053,134.682097 C30.5633415,135.387894 30.1128072,135.304859 29.9216049,134.428622 M31.3149644,136.795119 C31.8841759,137.97072 30.5281778,137.430992 31.3149644,136.795119 M33.2863263,81.7298034 C32.1303214,82.5230061 32.0841691,80.8382697 33.2863263,81.7298034 M44.8859339,75.3776259 C44.4991338,76.0965342 44.1716723,74.7548634 44.8859339,75.3776259 M30.7017983,47.4800511 C33.6247763,29.8263731 43.7255336,1.14433603 67.3313284,7.155633 C89.0031227,12.6730902 96.2754042,32.664859 91.4469961,49.9732862 C87.8471179,50.7249715 85.6142264,53.3755361 83.8494509,56.6488632 C82.8736598,58.4625224 82.0385232,60.4641029 81.192398,62.4307213 C80.3264932,64.3448966 79.4100407,66.1498152 78.2804086,67.6116683 C78.2408495,67.6269642 78.212279,67.6291493 78.1924994,67.6204088 C61.7469019,68.8484527 46.2265478,73.0963485 31.374303,79.2169021 C31.2863939,79.0093146 31.1984848,78.8039122 31.108378,78.5832139 C27.3085065,69.1696671 29.1414115,56.9198195 30.7017983,47.4800511 M27.7678316,73.7278516 C26.0426153,72.1785933 28.3656136,73.0941634 27.7678316,73.7278516 M25.9129493,85.7111131 C25.4997765,85.5057107 24.3833307,84.7715065 25.2712128,84.3563315 C26.1832698,84.7911727 26.3964494,85.2434949 25.9129493,85.7111131 M24.0932307,83.084585 C23.43611,82.3132335 25.1393491,82.2826417 24.0932307,83.084585 M25.2843992,79.4834881 C25.9898698,81.6467684 24.5987081,79.7041864 25.2843992,79.4834881 M93.6908763,89.0696603 C93.5172558,89.860678 93.1128738,90.192818 92.4777305,90.0682655 C92.7898078,88.8402215 93.1941898,88.5080815 93.6908763,89.0696603 M109.074971,86.5742401 C109.81121,85.925256 110.674917,85.6630402 111.661697,85.7875927 C112.12322,88.3245305 111.44632,89.1439548 109.63759,88.2458657 C110.668324,87.087746 110.481517,86.5305374 109.074971,86.5742401 M107.655239,83.3773926 L109.802419,83.3773926 C108.94091,84.7234336 108.94091,84.7234336 107.655239,83.3773926 M105.5652,90.0682655 C105.501466,88.9735145 105.811345,88.5299328 106.499234,88.7353352 C106.945373,89.9327873 106.635493,90.3785541 105.5652,90.0682655 M105.409161,82.3460105 C105.776182,84.1378184 106.253089,84.7365444 106.84208,84.1465589 C106.824498,84.1684102 106.811312,84.1880764 106.79373,84.2099277 C107.705787,84.3279248 107.962921,84.8152092 107.556341,85.676151 C106.688239,85.3877136 106.978339,84.5770298 106.782741,84.2252236 C105.114666,86.5458334 104.655341,85.9230709 105.409161,82.3460105 M109.705719,144.757739 C111.496867,145.474462 109.551878,145.240653 109.705719,144.757739 M108.213462,95.8217169 C109.151892,93.4683302 107.351953,92.4041711 109.795826,91.0537598 C111.47489,94.195979 109.171671,95.1552518 112.707815,94.4297881 C111.795758,96.1735231 110.296908,96.6389561 108.213462,95.8217169 M119.14496,91.4470835 C120.078995,91.7661127 120.254813,92.1353999 119.668019,92.5527601 C118.731787,92.2337309 118.555969,91.8644436 119.14496,91.4470835 M117.64611,87.9639838 C117.690064,87.8918744 117.766985,87.802284 117.894453,87.686472 C118.101039,88.2196442 118.309824,88.7506311 118.51641,89.2838032 C117.714239,89.3340613 117.098876,88.7025582 117.64611,87.9639838 M115.103339,82.9228852 C115.690132,82.737149 116.279123,82.5492277 116.868114,82.3634915 C116.545048,83.7903825 115.841775,83.3817628 115.103339,82.9228852 M114.325343,77.5911642 C114.942905,77.8796015 114.962684,78.318813 114.386879,78.9066134 C113.602291,78.4171439 113.582511,77.9801176 114.325343,77.5911642 M114.338529,86.8583072 C115.369264,86.4627984 115.848368,86.6048319 115.771448,87.2844078 C114.582477,87.8875042 114.103373,87.7454706 114.338529,86.8583072 M118.936176,93.8266918 C117.270298,94.925813 119.608681,95.8217169 117.560398,95.8217169 C116.705482,94.7466322 114.268202,93.8223215 114.749505,92.8390123 C115.687934,90.924837 120.593263,94.1719426 121.300931,95.8217169 C115.626398,95.8217169 121.136102,95.8807155 118.936176,93.8266918 M126.015057,83.8078635 C124.533789,84.4874394 124.982125,82.6956315 126.015057,83.8078635 M123.463495,87.2013728 C124.129407,87.6471397 124.793121,88.0950917 125.459032,88.5430436 C123.098673,90.607993 123.62393,87.5160318 123.463495,87.2013728 M123.50745,87.221039 C122.689895,86.6135724 122.204197,85.8072589 122.054752,84.7999132 C124.760155,85.8007035 122.804177,85.6084119 123.50745,87.221039 M123.522834,78.1571133 C122.812968,78.8629108 122.360236,78.7776906 122.171231,77.903638 C122.979995,77.3070971 123.43053,77.3923172 123.522834,78.1571133 M123.562393,80.2679504 C124.131605,81.4457363 122.775607,80.9038236 123.562393,80.2679504 M123.443716,76.4068229 C122.777804,75.6922848 122.918459,75.0738926 123.86568,74.549461 C123.511845,73.5246343 124.984323,77.4513158 123.443716,76.4068229 M124.140396,93.6256597 C124.995312,93.1318199 125.212887,94.6045986 124.140396,93.6256597 M122.960216,91.3290864 C123.634918,91.1105732 124.309621,90.8920601 125.204096,90.6014376 C124.557964,91.7661127 124.557964,91.7661127 122.960216,91.3290864 M130.610506,74.8684902 C131.302791,72.7117654 131.234661,75.0738926 130.610506,74.8684902 M130.797313,85.0380926 C129.896245,84.2295939 129.821522,83.7270136 130.570947,83.5347221 C131.491795,84.347591 131.566518,84.8479861 130.797313,85.0380926 M134.709269,88.8380364 C134.049951,88.0666849 135.755387,88.0360931 134.709269,88.8380364 M135.900437,85.2369396 C136.605908,87.4002198 135.212549,85.4576378 135.900437,85.2369396 M135.887251,90.109783 C136.79711,90.5468093 137.012488,90.9991315 136.528988,91.4645645 C136.115815,91.2591622 134.999369,90.5271431 135.887251,90.109783 M138.38387,79.481303 C136.658653,77.9320447 138.981652,78.8498 138.38387,79.481303 M111.641917,48.8960163 C115.142898,47.4691254 118.725194,45.6379852 120.955888,45.3582883 C129.801743,44.2547969 140.757416,53.7841557 140.757416,53.7841557 C142.199125,55.0362361 141.851884,55.7070715 139.988211,55.2744154 C139.988211,55.2744154 119.799883,50.585123 116.984594,62.4700537 C114.483579,73.0307946 139.08055,66.8293912 139.08055,66.8293912 C140.935432,66.361773 141.007957,66.5737308 139.238786,67.3035647 C139.238786,67.3035647 129.669879,71.243357 123.832714,73.6295206 C118.72959,75.7141362 103.758668,79.1447927 100.998321,83.5587585 C100.424714,84.4765138 100.147801,85.6346335 100.110439,86.9413422 C96.9830726,85.5406728 94.0051513,84.1990021 92.0667554,82.9228852 C91.9151121,82.968773 91.2448052,82.769926 91.3393074,82.4771184 C91.4206234,82.5098953 91.4843575,82.5383021 91.5502893,82.5667088 C90.915146,82.1034609 90.4316458,81.6511386 90.1415458,81.2053718 C96.3918838,68.4660547 109.833187,65.6494201 111.641917,48.8960163 M103.820204,47.3751648 C103.864158,47.4319782 103.894927,47.4844213 103.914706,47.5303091 C104.406997,48.3409929 104.211399,48.9746811 103.308133,49.4270033 C103.048801,49.5515558 101.207106,48.2033296 103.820204,47.3751648 M143.900167,87.4854399 C142.74636,88.2786427 142.700207,86.5939063 143.900167,87.4854399 M155.501972,81.1310773 C155.115172,81.8499856 154.787711,80.5105 155.501972,81.1310773 M161.789671,85.2391247 C162.314928,86.3841336 162.180867,86.8364559 161.387487,86.5982765 C161.000687,85.5734498 161.134749,85.1189424 161.789671,85.2391247 M170.872881,85.8007035 C170.916835,85.8487764 170.969581,85.9558478 171.026722,86.1525097 C170.606956,86.4780943 170.18719,86.8036789 169.767424,87.1292635 C169.292714,86.7534209 169.301505,85.4576378 168.985032,84.7846173 C169.870717,84.7518403 170.499267,85.0905357 170.872881,85.8007035 M182.850497,106.148649 C182.8483,101.079143 180.606617,95.4633553 186.105332,94.178498 C186.837176,94.0080577 184.101005,108.604737 182.850497,106.148649 M184.041666,125.657503 C183.342788,125.694651 182.931813,125.325363 182.806543,124.547457 C183.696623,124.407608 183.69882,123.671219 184.551539,124.167244 C183.89222,125.242328 183.182354,124.717897 184.041666,125.657503 M184.490002,127.379387 C184.665821,126.927065 184.509782,126.02242 184.896582,125.989643 C185.6526,125.92846 185.540516,127.999964 185.162507,128.511285 C184.140564,126.793772 185.114157,128.471953 185.347116,127.436201 C184.711973,127.130282 184.857023,127.997779 184.490002,127.379387 M186.136101,122.030185 C186.125112,122.028 186.118519,122.028 186.118519,122.028 C186.237196,122.322993 186.133903,122.489063 185.79765,122.52184 C185.729521,122.207181 186.03061,122.148182 186.103135,122.025815 C185.094378,121.938409 185.199869,121.687119 186.430596,121.271944 C185.947096,121.706786 185.850396,121.958076 186.136101,122.030185 M173.299172,65.4636839 C173.70795,64.6573704 180.272563,51.4089176 183.577945,53.3165375 C185.991051,54.7106515 188.56459,81.4195147 186.538285,84.6819161 C178.626465,97.416863 172.448652,83.4866492 172.448652,83.4866492 C171.675051,81.7450993 170.923428,78.766765 170.776181,76.8700708 C170.776181,76.8700708 170.343228,71.2892447 173.299172,65.4636839 M187.999774,124.311462 C188.162406,124.455681 188.325038,124.602085 188.487669,124.746304 C187.993181,124.905818 187.990983,124.619566 187.999774,124.311462 M190.335959,126.396078 C190.076627,126.780661 189.999706,126.273711 190.335959,126.396078 M26.6887472,150.35386 C25.0228695,151.452982 27.3590542,152.348886 25.3129696,152.348886 C24.4580535,151.271616 22.0207733,150.34949 22.5020757,149.366181 C23.4383078,147.449821 28.345834,150.699111 29.0535024,152.348886 C23.3789691,152.348886 28.8886728,152.405699 26.6887472,150.35386 M26.8953337,147.972067 C27.8315657,148.293281 28.007384,148.662569 27.4205906,149.079929 C26.4843586,148.758714 26.3085403,148.391612 26.8953337,147.972067 M20.1834728,79.2846411 C19.2802067,78.4761425 19.2054839,77.9735622 19.9571068,77.7812706 C20.8757571,78.5919544 20.9504798,79.0945347 20.1834728,79.2846411 M19.9966659,69.1128537 C20.6867525,66.9561288 20.6186229,69.3204412 19.9966659,69.1128537 M13.5243574,87.8722082 C14.3792736,87.3783685 14.5968486,88.848962 13.5243574,87.8722082 M272.572737,70.2338262 C271.838696,69.9956468 271.66068,69.7290608 272.038689,69.4318829 C272.748555,69.6547663 272.926571,69.9213523 272.572737,70.2338262 M295.723602,40.668996 C294.624738,40.1227131 294.42035,39.65728 295.112634,39.274882 C296.193916,39.82335 296.398305,40.2865979 295.723602,40.668996 M290.339169,36.6199471 C291.178701,37.1946368 289.541394,37.6666252 290.339169,36.6199471 M290.13478,40.404595 C288.886471,38.4991603 290.739155,40.0134565 290.13478,40.404595 M288.868889,35.6978216 C287.875516,35.5120854 287.550252,35.1318725 287.893098,34.5549978 C288.348027,34.6467733 289.616116,35.0663186 288.868889,35.6978216 M417.370036,104.315323 C416.409629,96.8225072 418.642521,89.7798281 411.047173,87.470144 C398.770666,83.7357542 400.873891,94.6985593 392.649994,97.8211123 C386.810631,100.036836 368.290378,94.163202 381.072363,89.5940919 C391.788484,85.7613711 401.974953,86.9063801 410.559278,77.8555651 C418.19858,69.798985 420.965519,61.014756 412.594374,52.3179324 C402.352962,41.6807119 386.089776,40.0702699 372.281452,40.7673269 L370.595795,40.852547 C369.094746,41.1082074 367.294807,41.5758256 366.59593,41.8904845 C365.897052,42.2051435 362.960888,43.9751 361.666426,45.3779545 L357.681946,51.2778098 C356.846809,52.9909529 354.994125,53.3558699 353.563404,52.0906787 C353.563404,52.0906787 345.069186,44.5760112 337.247472,42.7798331 C332.667407,41.7287848 326.795079,43.8068449 322.878727,42.4760998 C319.865643,41.4512731 317.472317,37.314819 314.125177,35.8311147 C312.593361,35.1537239 309.819829,34.2031916 306.910037,33.3138431 C306.896851,33.3335093 306.890257,33.3509903 306.874873,33.3750268 C306.852896,33.3444349 306.830919,33.3138431 306.806744,33.2832512 C304.609016,32.6124158 302.354147,31.9809128 300.486078,31.5242203 C300.059719,31.801732 299.60479,32.0967248 299.055358,32.4550864 C299.220187,31.7798807 299.305899,31.4608515 299.580615,31.3078923 C298.734489,31.1134156 297.993855,30.9648266 297.440028,30.8839768 C292.912708,30.2349927 288.607359,30.6632785 288.607359,30.6632785 C286.704127,30.8533849 283.756974,30.2852507 282.060328,29.4046427 C282.060328,29.4046427 279.990068,28.3273728 285.086599,38.4379766 C287.640359,43.5009265 293.156656,41.2786477 295.152193,43.0748258 C299.527869,47.0058775 296.396107,69.300775 296.396107,69.300775 C296.130182,71.1865435 295.85107,71.1734327 295.771952,69.2701831 L292.637992,54.7740203 C292.183063,54.9051282 292.484151,54.4440654 291.807251,54.2189969 C292.051199,54.170924 292.286356,54.1687388 292.514919,54.2080712 L291.618247,50.069432 C291.14134,50.2595384 290.583117,50.3884612 290.099617,50.434349 L289.809517,51.5662471 C289.972148,53.4629413 288.666698,54.4003628 286.908516,53.6508626 L268.157502,51.0483709 C266.26306,50.7774146 265.278478,52.0098288 265.968565,53.7863408 C265.968565,53.7863408 271.4475,67.8760692 273.058435,76.0856085 C274.935294,85.6390038 270.0937,87.3892942 262.019248,93.2061144 C262.076389,93.1624118 260.370952,66.0645951 259.757786,62.7147884 C258.390799,55.2438236 255.408482,48.1355905 248.82409,43.6801073 C248.215319,43.2693025 247.637317,42.9196815 247.083489,42.6137631 C247.094478,42.6836873 247.105467,42.744871 247.116455,42.8169803 C246.846135,42.6072077 246.648339,42.4520633 246.51208,42.3100298 C245.729689,41.9167061 245.000043,41.6217133 244.323143,41.4272366 C244.474786,42.1679962 243.312188,42.1395895 244.167104,41.3879042 C233.778445,38.5909358 235.615745,58.3554509 235.615745,58.3554509 C235.791564,60.24996 234.661932,60.8945738 233.103742,59.7867121 C233.103742,59.7867121 215.741692,47.4385336 200.588359,48.9768662 C192.661155,49.7809946 196.384106,51.4242136 192.856752,46.5797769 C190.430461,43.2518215 191.384275,37.4721485 188.566788,34.524406 C181.514279,27.1495869 172.762927,30.1869198 166.525775,35.8114485 C163.297313,38.7198586 154.216301,53.1329865 151.570237,53.5634574 C151.379035,53.5940492 140.355232,43.4244469 138.79924,42.4979511 C132.298361,38.6193425 126.485371,36.2331789 118.760358,37.8916937 C117.632923,38.1342433 114.731923,38.9340015 111.613347,40.0986766 C110.947435,35.33946 109.083762,31.4805177 105.90365,26.6120445 C88.3196294,-0.302221068 61.6787724,-11.0246617 40.3871849,14.5741547 C27.5041043,30.0623673 22.7262439,48.1639973 21.4735391,66.8446871 C21.5262845,55.9212143 21.7021028,43.9204717 22.693278,40.5116665 C25.2426423,31.7536591 30.8402552,24.7699786 34.1346492,16.538588 C34.0841015,16.6631405 34.4225516,16.0228969 34.928029,15.0024405 C35.4049359,14.7861125 35.7785496,14.3490861 35.9983224,13.8268397 C36.4664385,12.7167929 37.6400251,11.9454414 38.4290094,11.0735739 C39.3234847,10.0815242 40.0751076,8.96055168 40.2882872,7.62106602 C40.4399304,6.657423 40.0377462,5.70470563 39.0267914,5.41408313 C38.1718753,5.17153353 36.9587295,5.71344616 36.8070863,6.66834866 C36.7411544,7.08133852 36.5983021,7.43751497 36.4114953,7.76528471 C35.9477747,8.30064194 35.4862518,8.83818431 35.0357176,9.38665233 C34.952204,9.46968733 34.8686903,9.5505372 34.7829789,9.63575733 C33.9983901,10.4158493 33.3698399,11.2134223 32.8709557,12.1530289 C24.8096899,22.8929506 19.3527317,35.6978216 17.1066538,48.8676096 C16.4275559,52.8401788 16.0275694,77.455686 18.8076952,84.7933578 C17.4231266,85.2172734 16.0429535,85.6499294 14.6913509,86.1219178 C12.7815254,86.7905681 10.9376317,87.5400682 9.2146131,88.4031952 C9.92228147,88.9844402 10.4805043,89.5919068 10.684893,90.0682655 C5.58396669,90.0682655 9.52009728,90.1141532 8.76627662,88.632634 C8.40365153,88.8205553 8.04981734,89.015032 7.70037861,89.2160642 C7.80806728,89.7295701 8.20146056,90.0682655 6.94655796,90.0682655 C6.87623067,89.9786751 6.79051928,89.8912698 6.70041244,89.8060497 C5.32683254,90.6735469 4.07192993,91.6481156 2.9884501,92.7647178 C-0.644394037,96.5144036 -2.3146672,106.716783 6.00373271,100.012799 C6.55975786,109.008986 11.5398092,106.028466 19.4560249,105.67666 C20.5087365,105.141303 21.5834255,104.654019 22.6756962,104.221363 C25.3107719,117.074307 33.3214899,135.774663 27.8205771,142.734307 C27.3172974,143.37018 26.594245,143.927389 25.7327356,144.432154 C25.9107516,144.891032 26.0909653,145.349909 26.2689812,145.808787 C25.5349401,145.85686 24.9701241,145.332428 25.2931901,144.676889 C23.0756827,145.8656 20.1109478,146.752764 17.5967471,147.679259 C19.1703203,150.738444 16.9616038,151.67368 20.4603865,150.956957 C19.5483295,152.700692 18.0494791,153.16394 15.9660331,152.348886 C16.8341356,150.165939 15.3594602,149.09304 17.0824788,147.871551 C12.7705368,149.516955 10.1090883,151.361206 15.6583512,155.281332 C15.2385851,156.23842 13.1771164,154.354836 12.8650391,155.102151 C13.3705165,155.801393 17.6428994,158.618028 17.2956584,159.105312 C16.0319649,160.875269 11.8958411,157.195507 11.0101568,157.110287 C4.28730726,156.465673 25.9085539,173.830914 25.9766834,172.758015 C25.8887743,174.145573 34.8577017,172.187695 44.3233155,169.792791 C43.5958676,170.911578 42.962922,172.065328 42.4992014,173.149153 C41.347592,175.83905 40.8838714,177.609007 38.9784414,179.864062 C36.7587363,182.494961 35.4664723,185.543219 33.732465,188.528109 C33.2753376,189.314756 32.5808556,190.794091 32.3522919,191.250783 C32.3303146,191.296671 32.5742624,191.832028 32.4094328,192.142317 C31.5677031,193.722167 29.9655595,195.221167 28.8974637,196.669909 C28.4447318,197.281746 26.8645655,198.67586 27.0557678,199.711612 C27.4557543,201.861782 28.3568227,199.847091 29.9677572,200.767031 C33.9148764,203.024272 27.3063088,208.135295 26.1217335,210.418757 C25.5107651,211.598728 25.326156,213.060581 24.7261763,214.323587 C24.3635512,215.081828 23.7086283,214.94198 23.4163305,215.472967 C23.2361168,215.800736 23.5547873,216.545866 23.5218214,216.600494 C22.4207598,218.436005 20.8955366,220.085779 20.2779751,222.336465 C20.117541,222.92645 20.8647684,223.265146 20.6845548,223.887908 C20.4340138,224.74885 19.6955772,225.091916 19.2120771,225.847971 C18.7857179,226.516622 18.05827,227.805849 17.7505881,228.502906 C16.9418242,230.340602 16.1176763,231.455019 19.3856976,231.953229 C20.7944412,232.169557 22.2625234,231.597052 23.4690759,231.024548 C26.4469972,229.617323 25.3767037,228.915896 25.8558084,226.719839 C26.3239244,224.580595 28.7524137,224.051793 29.7831481,222.447907 C30.4820255,221.359711 30.679821,220.35455 31.5061667,219.235763 C33.8093855,216.119765 35.5873473,212.863919 37.2927841,209.267193 C38.1696775,207.414201 38.9740459,203.830586 41.2135306,203.389189 C42.1981127,203.194712 42.7783128,204.158355 43.8134427,203.845881 C43.2156607,204.025062 47.0177299,201.405089 46.9496003,201.562419 C47.6001278,200.078715 46.1342433,199.678836 45.0991135,199.25055 C46.5012638,197.222748 48.1847234,195.562048 49.6835738,193.68939 C51.6131788,191.274819 52.806545,188.563071 54.219684,185.866619 C56.0394027,182.39663 55.7998504,178.887309 56.5031233,175.010885 C56.7910256,173.431035 57.6481395,170.717102 58.5338238,169.384171 C58.9316126,168.785445 59.6854332,168.816037 60.0854197,168.28942 C60.5359539,167.695065 60.026081,167.249298 60.6392471,166.735792 C62.2238089,165.407232 61.9029406,165.068537 64.3797799,166.012513 C67.0939738,167.046081 69.1664312,169.150362 70.5180338,171.737558 C72.0190819,174.611006 72.1025956,178.048218 74.069562,180.764337 C74.8189872,181.800089 75.5640169,182.175932 76.3771762,183.063095 C76.4826672,183.176722 78.810061,185.908136 78.5441359,185.731141 C79.3572952,186.275238 83.0406871,187.048775 83.9769191,187.243252 C86.4207925,187.748017 89.9591344,187.595058 92.3370759,187.05533 C95.2204948,186.401976 97.2819636,183.884704 100.07088,185.407741 C100.94118,185.881915 101.253258,187.068441 102.051033,187.472691 C102.582883,187.741462 103.80482,187.673723 104.448754,187.841978 C107.1124,188.54122 108.870583,190.234697 111.795758,189.614119 C114.980266,188.938914 114.784668,187.112144 116.923057,185.208894 C118.123017,185.55196 118.287846,190.101404 120.052622,191.196155 C121.82399,192.295276 123.133836,192.002468 125.09421,191.733697 C127.129306,191.454 128.854522,190.968901 130.757754,190.083923 C131.702777,189.644711 132.24122,189.107169 132.751093,188.573997 C133.260966,188.04301 133.742269,187.477061 134.581801,187.009443 C134.907064,188.333632 134.924646,189.603194 135.058708,190.752573 C135.192769,191.893212 135.441112,192.996703 136.223503,194.036826 C137.641038,195.916039 140.087109,196.35088 142.159566,197.170304 C146.064929,198.710822 148.906591,198.944631 152.750417,196.586874 C154.471238,195.531456 155.064624,194.237858 156.172279,192.950815 C156.598638,192.454791 159.429312,188.829657 160.027094,188.742252 C160.594107,188.659217 162.220426,189.476456 163.734661,190.269659 C165.018134,195.43094 167.591673,199.711612 171.804717,203.105122 C174.290347,205.111073 180.252783,213.910597 184.327371,211.703615 C186.845967,210.337907 186.560262,203.710403 184.263636,202.283512 C191.129338,197.141898 190.733747,180.443122 191.09857,172.032551 C191.160106,170.596919 191.377682,153.972438 191.006266,153.83696 C193.300693,154.676051 204.423394,171.982293 205.172819,171.387937 C208.794675,168.5276 189.329399,147.377711 191.322738,147.299047 C197.542308,147.060867 205.13326,168.483897 210.130893,170.616586 C214.401078,172.4368 220.143741,171.396678 223.651315,169.012699 C226.420452,167.129116 225.345763,161.554845 228.152262,161.447773 C231.169742,170.815433 235.916834,180.449678 239.749672,189.54638 C244.327539,200.41304 247.125246,196.204476 256.573278,198.983964 C264.271919,201.249945 269.449766,206.419966 277.818713,206.787069 C288.627139,207.259057 300.655303,203.096381 310.632988,199.239624 C341.566007,187.280399 321.129336,155.637509 296.558739,152.517141 C289.706223,151.649644 284.117401,154.67168 277.862668,154.641089 C270.032164,154.601756 272.150773,157.851047 271.504641,148.223357 C271.328823,145.616495 271.935396,126.219082 264.564217,129.276081 C264.247744,129.407189 264.027971,130.510681 263.865339,132.173566 C264.487296,132.140789 264.981785,132.57563 264.685092,133.305464 C264.658719,133.386314 264.614764,133.48246 264.526855,133.617938 C264.291698,133.296723 264.054344,132.977694 263.819187,132.658665 C263.230196,139.563681 263.498319,154.57335 262.570878,154.280542 C257.775435,157.855417 257.322703,140.512028 256.830412,138.228565 C254.511809,127.473348 250.914129,122.52621 239.211228,121.53416 C233.941077,121.088393 223.904054,120.507148 222.565637,125.980903 C221.633801,129.783032 228.031387,142.646901 228.853337,148.055102 C219.717382,148.538016 230.692835,160.707014 221.86676,157.210803 C214.146142,154.153804 207.207915,137.80465 202.69598,131.078815 C201.588325,129.426855 200.375179,127.645973 199.047752,125.915349 C200.860877,119.681169 201.75755,110.556059 202.728946,107.184401 C203.236621,105.423185 201.553161,102.877507 202.216875,101.513985 L202.465219,101.004849 C203.548698,101.361025 204.81459,101.625426 205.276112,101.594835 C205.737635,101.562058 207.359558,100.93274 209.141916,100.240053 C209.141916,100.240053 217.26252,97.0825378 221.550287,95.4480594 C223.583185,94.6723377 233.908111,86.2268042 234.099313,86.2442852 C234.158652,86.2508406 234.330075,86.5305374 234.582813,87.004711 C234.596,86.9326017 234.609186,86.8604923 234.637757,86.7774573 C236.022325,86.4037998 236.589339,86.6529048 236.345391,87.5225872 C235.677282,87.6973977 235.206968,87.7301747 234.91467,87.636214 C236.516814,90.7522116 240.026585,98.1423266 241.980365,99.6151053 C246.70548,103.183425 252.105297,103.5986 257.617199,103.283941 C261.384104,103.069798 268.036627,102.213227 271.034327,99.4621461 C273.656217,97.0563162 273.519958,89.9917859 277.170384,89.5350934 C285.737127,88.4643789 283.840488,108.482369 287.888702,109.478789 C297.097182,111.749141 290.864426,88.5911165 296.051064,104.813533 C299.123487,114.430297 296.393909,127.1718 302.620072,134.767317 C304.927686,137.583952 303.554106,138.849143 308.013296,138.88192 C311.103302,138.905956 309.351713,135.036088 311.189013,134.295329 C313.340589,133.427831 314.986687,133.209318 316.254776,133.204948 C317.678903,135.219639 320.957913,137.186258 323.713864,138.420857 C325.274251,151.726123 326.034665,163.090992 330.274082,176.024786 C332.487194,182.779028 333.722317,191.270449 339.451793,196.283141 C342.976949,199.364177 353.095288,201.488124 346.910882,194.587479 C356.985266,194.948026 352.534867,189.896001 353.627138,182.667586 C354.218327,178.756201 356.416055,176.931616 357.816007,173.43759 C361.207101,164.983316 367.307994,156.765037 365.068509,147.043386 C362.242231,134.789168 350.154728,132.877178 339.23202,131.751835 C334.331087,131.24707 325.467651,126.920509 320.502984,127.619752 C320.509577,127.154319 320.51617,126.667034 320.520566,126.125122 C320.555729,122.010519 319.566752,112.535788 321.362295,108.949987 C323.307284,105.069194 323.949021,104.92279 323.949021,104.92279 C325.814892,104.50106 325.922581,103.500269 324.186376,102.698326 C324.186376,102.698326 318.832711,100.224757 322.340284,96.3155566 C323.762214,94.7291511 329.625752,96.9929474 331.46525,96.7416573 C336.774961,96.0161936 341.728639,90.9685397 346.695504,90.6429551 C353.374399,90.2037436 349.381128,89.1832872 353.642522,95.9309735 C359.642319,105.427555 369.967244,112.358793 381.393232,113.368323 C388.603977,114.004197 399.183838,113.790054 399.183838,113.790054 C401.098059,113.750721 402.43208,113.862163 402.148573,114.036974 C401.865066,114.211784 403.056235,114.22708 404.757276,113.353028 C404.757276,113.353028 405.831965,112.798004 409.675791,112.406866 C410.552685,112.317275 412.126258,114.301375 413.073479,113.934273 C419.031519,111.618033 418.310664,111.659551 417.370036,104.315323" id="Fill-5"></path>
                <path d="M109,163.86204 C109.398664,163.86204 110.195993,163.86204 109.955721,163.03804 C109.531552,162.87204 109.132888,163.26804 109,163.86204" id="Fill-7"></path>
                <path d="M105.033996,171.648 C105.145996,171.438 105.247996,171.224 105.333996,171 C105.095996,171.084 104.923996,171.76 105.033996,171.648" id="Fill-9"></path>
                <path d="M53,191.866513 C53.378,192.186583 53.64,191.931226 53.786,191.098692 C53.414,190.838088 53.152,191.093445 53,191.866513" id="Fill-11"></path>
                <path d="M332.001007,168.026588 C332.051007,168.352278 332.099007,168.677969 332.153007,169 C332.213007,169 331.983007,167.808851 332.001007,168.026588" id="Fill-13"></path>
                <path d="M323.682752,138.247079 C322.126752,137.547079 323.722752,138.593079 323.682752,138.247079" id="Fill-15"></path>
                <path d="M374,63 L374,63 C374.008,63.014 374.014,63.026 374.02,63.036 C374.012,63.022 374.006,63.012 374,63" id="Fill-17"></path>
                <path d="M291.262,48.1137146 L291,49 C291.018,48.9809958 291.034,48.9637193 291.056,48.9412598 C291.274,48.9533534 291.542,48.9049791 291.81,48.8531496 L291.63,48.1344464 C291.644,46.6296616 291.478,46.6210233 291.262,48.1137146" id="Fill-19"></path>
                <path d="M18.3035298,233 C18.0295298,233.082 17.9415298,233.234 18.0375298,233.454 C18.3655298,233.642 18.4575298,233.52 18.3355298,233.116 C18.3655298,233.092 18.3715298,233.054 18.3035298,233" id="Fill-21"></path>
                <path d="M252,151.025487 C252.106,151.027487 252.214,151.025487 252.328,151.011487 C252.338,150.987487 252.152,151.005487 252,151.025487" id="Fill-23"></path>
                <path d="M299.006,48.094 L299.006,48.094 C299.002,48.046 299,48.012 299,48 C299,48.016 299.004,48.06 299.006,48.094" id="Fill-25"></path>
                <path d="M39.314,179 C39.204,179.198 39.132,179.33 39,179.568 C39.37,179.454 39.492,179.348 39.314,179" id="Fill-27"></path>
                <path d="M309.299854,163.184256 C308.507854,162.464256 309.565854,164.154256 309.299854,163.184256" id="Fill-29"></path>
                <path d="M186,121 C186.01,121.002 186.024,121.006 186.04,121.01 C186.02,121.004 186.008,121.002 186,121" id="Fill-31"></path>
                <path d="M299,50 C299.002,50.022 299.002,50.04 299.002,50.04 C299.002,50.024 299,50.014 299,50 Z" id="Fill-33"></path>
                <path d="M21,207.902675 C20.1465517,207.769928 19.4051724,207.626562 19,207 C19.1875,207.761079 20.1228448,208.208876 21,207.902675" id="Fill-35"></path>
                <path d="M291.554,50.686 C291.638,50.116 291.28,50.094 291.132,50 L291,50.516 C291.072,50.632 291.226,50.714 291.554,50.686" id="Fill-37"></path>
            </g>
        </g>
    </g>
</svg>