<?xml version="1.0" encoding="UTF-8"?>
<svg width="43px" height="43px" viewBox="0 0 43 43" version="1.1" xmlns="http://www.w3.org/2000/svg" xmlns:xlink="http://www.w3.org/1999/xlink">
    <g id="Page-1" stroke="none" stroke-width="1" fill="none" fill-rule="evenodd">
        <g id="iPad-Pro-Landscape" transform="translate(-800.000000, -521.000000)">
            <g id="mm" transform="translate(800.000000, 521.000000)">
                <rect id="Rectangle-Copy" fill="#FFFFFF" x="0" y="0" width="43" height="43" rx="7"></rect>
                <path d="M12.6796875,17 L15.2363281,24.21875 L17.7792969,17 L20.4726562,17 L20.4726562,26.953125 L18.4150391,26.953125 L18.4150391,24.2324219 L18.6201172,19.5361328 L15.9335938,26.953125 L14.5253906,26.953125 L11.8457031,19.5429688 L12.0507812,24.2324219 L12.0507812,26.953125 L10,26.953125 L10,17 L12.6796875,17 Z M24.2255859,17 L27.4794922,25.1210938 L30.7333984,17 L32.4355469,17 L32.4355469,26.953125 L31.1230469,26.953125 L31.1230469,23.0771484 L31.2460938,18.8935547 L27.9785156,26.953125 L26.9736328,26.953125 L23.7128906,18.9140625 L23.8427734,23.0771484 L23.8427734,26.953125 L22.5302734,26.953125 L22.5302734,17 L24.2255859,17 Z" id="MM" fill="#222421"></path>
            </g>
        </g>
    </g>
</svg>