<?xml version="1.0" encoding="UTF-8"?>
<svg width="43px" height="43px" viewBox="0 0 43 43" version="1.1" xmlns="http://www.w3.org/2000/svg" xmlns:xlink="http://www.w3.org/1999/xlink">
    <g id="Page-1" stroke="none" stroke-width="1" fill="none" fill-rule="evenodd">
        <g id="iPad-Pro-Landscape" transform="translate(-581.000000, -521.000000)">
            <g id="soundcloud" transform="translate(581.000000, 521.000000)">
                <rect id="Rectangle" fill="#FFFFFF" x="0" y="0" width="43" height="43" rx="7"></rect>
                <g id="Calque_1" transform="translate(9.000000, 15.000000)" fill-rule="nonzero" fill="#282829">
                    <path d="M0.725251935,7.25696126 C0.672872819,7.25696126 0.631293522,7.29835067 0.624543636,7.35739957 L0.440946737,8.78257494 L0.624543636,10.1831926 C0.631293522,10.2422415 0.672872819,10.283355 0.725251935,10.283355 C0.776011077,10.283355 0.817320379,10.2425174 0.825420242,10.1837445 L0.825420242,10.1837445 L0.825420242,10.1834685 C0.825420242,10.1834685 0.825420242,10.1834685 0.825420242,10.1837445 L1.04303657,8.78257494 L0.825420242,7.35712364 C0.817590375,7.29835067 0.775741082,7.25696126 0.725251935,7.25696126 Z M4.63640586,11.6930783 C4.72577435,11.6930783 4.79813313,11.619957 4.80488302,11.5236576 L5.04193901,8.78340273 L4.80488302,6.17669765 C4.79840312,6.08039828 4.72604435,6.00782885 4.63640586,6.00782885 C4.54568739,6.00782885 4.47332862,6.08095014 4.46765871,6.17780136 L4.25895224,8.78340273 L4.46765871,11.5233817 C4.47359861,11.619957 4.54568739,11.6930783 4.63640586,11.6930783 Z M2.6395196,11.5429727 C2.70485849,11.5429727 2.7577776,11.4902702 2.76533747,11.4174248 L3.03155297,8.78285087 L2.76560747,6.04894233 C2.7577776,5.97582104 2.70485849,5.92311852 2.6395196,5.92311852 C2.57337071,5.92311852 2.52045161,5.97609697 2.51370172,6.04894233 C2.51370172,6.04921826 2.27934568,8.78285087 2.27934568,8.78285087 L2.51370172,11.416873 C2.52018161,11.4899943 2.57310072,11.5429727 2.6395196,11.5429727 Z M10.8209214,3.00682065 C10.6575741,3.00682065 10.5266264,3.13954269 10.5233864,3.3095152 L10.3905487,8.78698981 L10.5233864,11.4226675 C10.5266264,11.5904326 10.6573041,11.7231546 10.8209214,11.7231546 C10.9839986,11.7231546 11.1141364,11.5907085 11.1179164,11.420736 L11.1179164,11.4229434 L11.2669538,8.78726574 L11.1179164,3.30896334 C11.1141364,3.13954269 10.9839986,3.00682065 10.8209214,3.00682065 Z M6.66569158,11.7209472 C6.77854967,11.7209472 6.8716981,11.6268552 6.87709801,11.506826 L7.08445451,8.78533424 L6.87709801,3.57633894 C6.8714281,3.45603372 6.77854967,3.36221772 6.66569158,3.36221772 C6.5517535,3.36221772 6.45887507,3.45630965 6.45401516,3.57633894 C6.45401516,3.57661487 6.27041826,8.78533424 6.27041826,8.78533424 L6.45428515,11.5079297 C6.45887507,11.6268552 6.5517535,11.7209472 6.66569158,11.7209472 Z M8.98117246,11.4640569 L8.98117246,11.4626772 L9.15936945,8.78616202 L8.98117246,2.95191069 C8.97685254,2.80704776 8.86507442,2.69336484 8.72710676,2.69336484 C8.5883291,2.69336484 8.47655099,2.80677183 8.47277105,2.95191069 L8.31455372,8.78588609 L8.47304105,11.463781 C8.47682098,11.6072643 8.5885991,11.7206712 8.72710676,11.7206712 C8.86534442,11.7206712 8.97658254,11.6072643 8.98117246,11.4629532 L8.98117246,11.4640569 L8.98117246,11.4640569 Z M22.4588048,5.42313444 C22.0357219,5.42313444 21.6320787,5.51060406 21.264345,5.66815975 C21.0186491,2.82387945 18.6848085,0.592714286 15.8379766,0.592714286 C15.1413884,0.592714286 14.4623499,0.732886423 13.86269,0.969909782 C13.6296839,1.0620702 13.567585,1.15698992 13.565425,1.34103483 L13.565425,11.3572722 C13.567855,11.5504228 13.7144625,11.7112896 13.8988694,11.7303288 C13.9066993,11.7311566 22.4034557,11.7355714 22.4585348,11.7355714 C24.163826,11.7355714 25.5464726,10.3225369 25.5464726,8.5794909 C25.5464726,6.83644485 24.164096,5.42313444 22.4588048,5.42313444 Z M12.9341757,1.33220509 C12.7486888,1.33220509 12.5964114,1.48782927 12.5937114,1.67904835 L12.4543938,8.78836946 L12.5939814,11.3685853 C12.5964114,11.5570451 12.7486888,11.7123934 12.9341757,11.7123934 C13.1191226,11.7123934 13.2714,11.5570451 13.2740999,11.365826 L13.2740999,11.3688612 L13.4255674,8.78836946 L13.2740999,1.67849649 C13.2714,1.48782927 13.1191226,1.33220509 12.9341757,1.33220509 Z" id="Shape"></path>
                </g>
            </g>
        </g>
    </g>
</svg>