<?xml version="1.0" encoding="UTF-8"?>
<svg width="43px" height="43px" viewBox="0 0 43 43" version="1.1" xmlns="http://www.w3.org/2000/svg" xmlns:xlink="http://www.w3.org/1999/xlink">
    <!-- Generator: Sketch 42 (36781) - http://www.bohemiancoding.com/sketch -->
    <title>vk</title>
    <desc>Created with Sketch.</desc>
    <defs></defs>
    <g id="Page-1" stroke="none" stroke-width="1" fill="none" fill-rule="evenodd">
        <g id="iPad-Pro-Landscape" transform="translate(-508.000000, -521.000000)">
            <g id="vk" transform="translate(508.000000, 521.000000)">
                <rect id="Rectangle" fill="#FFFFFF" x="0" y="0" width="43" height="43" rx="7"></rect>
                <path d="M20.7639706,27.9497347 L22.0789335,27.9497347 C22.0789335,27.9497347 22.4760409,27.9078116 22.6790878,27.6989366 C22.8657112,27.5069494 22.8597461,27.1466771 22.8597461,27.1466771 C22.8597461,27.1466771 22.8340263,25.4597523 23.6527987,25.2112503 C24.4602607,24.9664518 25.4968767,26.8417344 26.5955455,27.5627975 C27.4264032,28.1083909 28.0577775,27.9889173 28.0577775,27.9889173 L30.9957987,27.9497347 C30.9957987,27.9497347 32.5326336,27.859 31.8038804,26.7037436 C31.7442291,26.6093054 31.3793489,25.8491338 29.6193251,24.2871636 C27.7769515,22.6522354 28.0239235,22.9168104 30.24303,20.0889244 C31.594481,18.3667427 32.1346741,17.3154053 31.9658686,16.8650649 C31.804965,16.4360564 30.8109571,16.5493822 30.8109571,16.5493822 L27.5030203,16.5690105 C27.5030203,16.5690105 27.2575977,16.5370126 27.0758548,16.6410798 C26.8980629,16.7427026 26.7839507,16.9803165 26.7839507,16.9803165 C26.7839507,16.9803165 26.2601812,18.3129685 25.5621832,19.4464487 C24.089183,21.837771 23.5001069,21.9643552 23.2593324,21.8156244 C22.6990748,21.4695733 22.8391392,20.4254206 22.8391392,19.6834699 C22.8391392,17.3658464 23.2068083,16.3996144 22.1231685,16.1494829 C21.7636337,16.0664513 21.4987663,16.0115661 20.5791289,16.0026778 C19.3988075,15.991123 18.399919,16.0061591 17.8342386,16.2710303 C17.457893,16.4473149 17.1675383,16.8398073 17.344478,16.8624725 C17.5631737,16.8903225 18.0582022,16.9902417 18.3207455,17.3317005 C18.6597509,17.7727823 18.6478981,18.7629386 18.6478981,18.7629386 C18.6478981,18.7629386 18.8427332,21.4910534 18.1929212,21.8299197 C17.7471632,22.0623487 17.135466,21.5877877 15.8222073,19.4181543 C15.1494644,18.3068949 14.6413436,17.0783099 14.6413436,17.0783099 C14.6413436,17.0783099 14.5435,16.8487697 14.3687293,16.7258149 C14.1567735,16.57701 13.8606086,16.5297539 13.8606086,16.5297539 L10.7170615,16.5493822 C10.7170615,16.5493822 10.2452738,16.562048 10.0718976,16.7581831 C9.91765634,16.9328381 10.05958,17.293703 10.05958,17.293703 C10.05958,17.293703 12.5204681,22.7986701 15.3071918,25.5727818 C17.8626698,28.1166866 20.7639706,27.9497347 20.7639706,27.9497347" id="Fill-1" fill="#282829"></path>
            </g>
        </g>
    </g>
</svg>