<?xml version="1.0" encoding="UTF-8"?>
<svg width="43px" height="43px" viewBox="0 0 43 43" version="1.1" xmlns="http://www.w3.org/2000/svg" xmlns:xlink="http://www.w3.org/1999/xlink">
    <g id="Page-1" stroke="none" stroke-width="1" fill="none" fill-rule="evenodd">
        <g id="iPad-Pro-Landscape" transform="translate(-727.000000, -521.000000)">
            <g id="youtube" transform="translate(727.000000, 521.000000)">
                <rect id="Rectangle-Copy" fill="#FFFFFF" x="0" y="0" width="43" height="43" rx="7"></rect>
                <g id="icon" transform="translate(10.000000, 13.000000)">
                    <g id="YouTube-icon-dark">
                        <path d="M22.7580724,3.52484597 C22.7580724,3.52484597 22.5334736,1.92991672 21.8441937,1.22756236 C20.9700587,0.305734991 19.9902407,0.301157916 19.540908,0.247207348 C16.3241262,0.0130741191 11.4987847,0.0130741191 11.4987847,0.0130741191 L11.4887926,0.0130741191 C11.4887926,0.0130741191 6.6635636,0.0130741191 3.44666928,0.247207348 C2.99731409,0.301157916 2.01785616,0.305734991 1.14340607,1.22756236 C0.454171233,1.92991672 0.229887476,3.52484597 0.229887476,3.52484597 C0.229887476,3.52484597 0,5.39782116 0,7.2707737 L0,9.02667096 C0,10.8996008 0.229887476,12.7725534 0.229887476,12.7725534 C0.229887476,12.7725534 0.454171233,14.3675053 1.14340607,15.0698596 C2.01785616,15.9917097 3.16650587,15.9625478 3.67810959,16.0591649 C5.51714188,16.2367191 11.4938112,16.2916667 11.4938112,16.2916667 C11.4938112,16.2916667 16.3241262,16.2843479 19.540908,16.0502373 C19.9902407,15.9962641 20.9700587,15.9917097 21.8441937,15.0698596 C22.5334736,14.3675053 22.7580724,12.7725534 22.7580724,12.7725534 C22.7580724,12.7725534 22.9876223,10.8996008 22.9876223,9.02667096 L22.9876223,7.2707737 C22.9876223,5.39782116 22.7580724,3.52484597 22.7580724,3.52484597 L22.7580724,3.52484597 Z" id="Path" fill="#282829"></path>
                        <polygon id="Fill-5" fill="#FFFFFF" points="9.12060274 11.1544895 9.11954501 4.65141812 15.3308953 7.91428321"></polygon>
                    </g>
                </g>
            </g>
        </g>
    </g>
</svg>